<?xml version="1.0" encoding="UTF-8" standalone="no"?>
<svg version="1.1" xmlns="http://www.w3.org/2000/svg" viewBox="-500 -500 1000 1000">
	<g id="Rosette">
		<title>Rosette Icon, by Adam Stanislav</title>
		<path d="m0-500a500 500 0 0 0 0 1000 500 500 0 0 0 0-1000zm-172.725 79.068l172.725 88.902l172.725-88.902l1.275 0.522l0.05 0.19l0.2-0.092l1.25 0.527l59.275 185.01l185 59.275l0.525 1.25-0.075 0.2l0.175 0.05l0.525 1.275-88.9 172.725l88.9 172.725-0.525 1.275-0.175 0.05l0.075 0.2-0.525 1.25-185 59.275-59.275 185-1.25 0.525-0.2-0.075-0.05 0.175-1.275 0.525-172.725-88.9-172.725 88.9-1.275-0.525-0.05-0.175-0.2 0.075-1.25-0.525-59.275-185-185.01-59.275-0.528-1.25l0.093-0.2-0.19-0.05-0.523-1.275l88.903-172.725-88.903-172.725l0.523-1.275l0.19-0.05-0.093-0.2l0.528-1.25l185.01-59.275l59.275-185.01l1.25-0.528l0.2 0.093l0.05-0.19l1.275-0.523l0 0zm6.025 18.49l-28.925 89.045l182.425 281.55-70.075-328.1-83.425-42.492l0-0.003zm333.4 0l-83.425 42.5-70.075 328.101l182.425-281.551-28.925-89.042l0-0.008zm-235.825 48.893l62.875 294.35l0-262-62.875-32.35zm138.25 0l-62.875 32.362l0 262l62.875-294.35l0-0.012zm-270.25 54.672l-21.575 67.353l185.275 185.275-163.7-252.625l0-0.002zm402.25 0l-163.7 252.625l185.275-185.276-21.575-67.352l0 0.003zm-432.65 76.177l-67.352 21.575l252.625 163.7-185.275-185.275l0.002 0zm463.05 0l-185.275 185.275l252.625-163.7-67.35-21.575zm-544.925 27.075l-89.045 28.925l42.5 83.425l328.1 70.075-281.55-182.425-0.005 0zm626.8 0l-281.55 182.425l328.1-70.075l42.5-83.425-89.05-28.925zm-666.95 126.5l32.363 62.875l262 0-294.35-62.875-0.013 0zm707.1 0l-294.375 62.875l262 0l32.375-62.875zm-674.75 75.375l-32.362 62.875l294.375-62.875-262 0-0.013 0zm380.4 0l294.325 62.875-32.375-62.875-261.95 0zm-91.075 6.95l-328.1 70.075-42.492 83.425l89.045 28.925l281.55-182.425-0.003 0zm63.7 0l281.55 182.425l89.05-28.925-42.5-83.425-328.1-70.075zm-45.05 18.65l-182.425 281.55l28.925 89.05l83.425-42.5l70.075-328.1zm26.4 0l70.075 328.1l83.425 42.5l28.925-89.05-182.425-281.55zm-59.45 5.575l-252.625 163.7l67.35 21.575l185.275-185.275l0 0zm92.5 0l185.275 185.275l67.35-21.575-252.625-163.7l0 0zm-83.675 8.825l-185.275 185.275l21.575 67.35l163.7-252.625zm74.85 0l163.7 252.625l21.575-67.35-185.275-185.275l0 0zm-43.675 12.925l-62.875 294.375l62.875-32.375l0-262l0 0zm12.5 0l0 262l62.875 32.375-62.875-294.375l0 0z"/>
	</g>
</svg>